<?xml version="1.0" encoding="UTF-8"?>
<svg width="146px" height="57px" viewBox="0 0 146 57" version="1.1" xmlns="http://www.w3.org/2000/svg" xmlns:xlink="http://www.w3.org/1999/xlink">
    <!-- Generator: Sketch 60.1 (88133) - https://sketch.com -->
    <title>logo@3x</title>
    <desc>Created with Sketch.</desc>
    <g id="Page-1" stroke="none" stroke-width="1" fill="none" fill-rule="evenodd">
        <g id="Desktop" transform="translate(-585.000000, -149.000000)">
            <g id="logo" transform="translate(585.000000, 149.000000)">
                <path d="M15,40.4244898 C15,36.0272109 18.570068,32.9360544 23.7945578,32.9360544 C26.4068027,32.9360544 28.3659864,33.8068027 29.2367347,34.5904762 L29.2367347,32.4571429 C29.2367347,29.844898 27.4081633,28.277551 24.4040816,28.277551 C21.8789116,28.277551 19.7020408,29.1482993 18.047619,30.062585 L16.2190476,26.7537415 C18.047619,25.5782313 21.0952381,24.1414966 24.8829932,24.1414966 C31.6312925,24.1414966 33.9387755,27.7986395 33.9387755,32.7619048 L33.9387755,47.4340136 L29.8027211,47.4340136 L29.4108844,45.7360544 C28.2353741,47.0421769 26.4068027,48 23.5768707,48 C18.7877551,48 15,44.9959184 15,40.4244898 Z M19.7455782,40.2938776 C19.7455782,42.5578231 21.7047619,44.2122449 24.5782313,44.2122449 C27.3646259,44.2122449 29.3673469,42.644898 29.3673469,40.2938776 C29.3673469,37.8993197 27.4081633,36.3755102 24.5346939,36.3755102 C21.6612245,36.3755102 19.7455782,38.029932 19.7455782,40.2938776 Z M37.7231816,47.4340136 L37.7231816,28.6258503 L35.2415489,28.6258503 L35.2415489,24.707483 L37.7231816,24.707483 L37.7231816,23.7061224 C37.7231816,17.9156463 41.4238619,16 45.4728414,16 C46.3871272,16 47.1708006,16.0870748 47.1708006,16.0870748 L47.1708006,20.1360544 C47.1708006,20.1360544 46.5612768,20.0489796 46.0388278,20.0489796 C43.7313448,20.0489796 42.4687598,21.2244898 42.4687598,23.7931973 L42.4687598,24.707483 L46.8660387,24.707483 L46.8660387,28.6258503 L42.4687598,28.6258503 L42.4687598,47.4340136 L37.7231816,47.4340136 Z M51.2164312,36.1142857 C51.2164312,40.5986395 54.2205128,43.7768707 58.4436421,43.7768707 C62.6667713,43.7768707 65.7579278,40.5115646 65.7579278,36.0707483 C65.7579278,31.629932 62.6667713,28.3646259 58.4436421,28.3646259 C54.1769754,28.3646259 51.2164312,31.6734694 51.2164312,36.1142857 Z M46.4273155,36.1142857 C46.4273155,29.2353741 51.6082679,24.1414966 58.4436421,24.1414966 C65.4531659,24.1414966 70.503506,29.2353741 70.503506,36.0707483 C70.503506,42.9061224 65.3660911,48 58.4436421,48 C51.4776557,48 46.4273155,42.9931973 46.4273155,36.1142857 Z M83.4743066,24.1414966 L83.4743066,28.9306122 C78.5110413,28.9306122 77.0743066,32.7183673 77.0743066,37.6380952 L77.0743066,47.4340136 L72.3287284,47.4340136 L72.3287284,24.707483 L76.9872318,24.707483 L76.9872318,28.277551 C77.8579801,26.0136054 80.2525379,24.1414966 83.4743066,24.1414966 Z M83.514495,40.4244898 C83.514495,36.0272109 87.0845631,32.9360544 92.3090529,32.9360544 C94.9212977,32.9360544 96.8804814,33.8068027 97.7512297,34.5904762 L97.7512297,32.4571429 C97.7512297,29.844898 95.9226583,28.277551 92.9185767,28.277551 C90.3934066,28.277551 88.2165358,29.1482993 86.5621141,30.062585 L84.7335426,26.7537415 C86.5621141,25.5782313 89.6097331,24.1414966 93.3974882,24.1414966 C100.145788,24.1414966 102.453271,27.7986395 102.453271,32.7619048 L102.453271,47.4340136 L98.3172161,47.4340136 L97.9253794,45.7360544 C96.7498692,47.0421769 94.9212977,48 92.0913658,48 C87.3022501,48 83.514495,44.9959184 83.514495,40.4244898 Z M88.2600733,40.2938776 C88.2600733,42.5578231 90.2192569,44.2122449 93.0927263,44.2122449 C95.8791209,44.2122449 97.881842,42.644898 97.881842,40.2938776 C97.881842,37.8993197 95.9226583,36.3755102 93.0491889,36.3755102 C90.1757195,36.3755102 88.2600733,38.029932 88.2600733,40.2938776 Z M116.512507,24.1414966 L116.512507,28.9306122 C111.549241,28.9306122 110.112507,32.7183673 110.112507,37.6380952 L110.112507,47.4340136 L105.366928,47.4340136 L105.366928,24.707483 L110.025432,24.707483 L110.025432,28.277551 C110.89618,26.0136054 113.290738,24.1414966 116.512507,24.1414966 Z M119.643851,24.707483 L119.643851,19.9619048 L124.345892,19.9619048 L124.345892,24.707483 L128.960858,24.707483 L128.960858,28.6258503 L124.345892,28.6258503 L124.345892,39.2054422 C124.345892,42.7319728 125.695552,43.5156463 128.220722,43.5156463 C128.612559,43.5156463 129.135008,43.4721088 129.135008,43.4721088 L129.135008,47.5646259 C129.135008,47.5646259 128.307797,47.7387755 126.827525,47.7387755 C121.298273,47.7387755 119.643851,44.0380952 119.643851,38.4653061 L119.643851,28.6258503 L117.118681,28.6258503 L117.118681,24.707483 L119.643851,24.707483 Z" id="aforart" fill="#3930D8" fill-rule="nonzero"></path>
                <rect id="Rectangle" stroke="#3930D8" stroke-width="4" x="2" y="9" width="142" height="46"></rect>
                <g id="Group" transform="translate(113.000000, 0.000000)">
                    <rect id="Rectangle" fill="#FFFFFF" x="0" y="0" width="18" height="18"></rect>
                    <rect id="Rectangle-Copy" fill="#3930D8" x="3" y="3" width="12" height="12"></rect>
                </g>
            </g>
        </g>
    </g>
</svg>